<svg width="360" height="361" viewBox="0 0 360 361" fill="none" xmlns="http://www.w3.org/2000/svg">
<path d="M160.161 39.5791C180.495 39.5877 200.427 43.463 218.979 50.7939L175.684 94.0898C170.565 93.3377 165.378 92.9551 160.161 92.9551C131.851 92.9908 104.711 104.253 84.6927 124.271C64.6743 144.29 53.412 171.43 53.3763 199.74C53.3763 220.86 59.6387 241.507 71.3724 259.067C83.1061 276.628 99.7839 290.315 119.296 298.397C138.809 306.48 160.28 308.594 180.994 304.474C201.709 300.353 220.736 290.183 235.67 275.249C250.604 260.315 260.774 241.287 264.895 220.573C266.989 210.044 267.472 199.319 266.379 188.755L310.515 144.619C316.933 162.111 320.315 180.751 320.323 199.74C320.323 231.417 310.929 262.382 293.33 288.721C275.732 315.059 250.718 335.588 221.452 347.71C192.187 359.832 159.984 363.004 128.915 356.824C97.8472 350.644 69.3094 335.39 46.9105 312.991C24.5116 290.592 9.25734 262.054 3.07747 230.986C-3.10238 199.918 0.0695356 167.715 12.1917 138.449C24.3139 109.184 44.8426 84.17 71.181 66.5713C97.5193 48.9726 128.485 39.5791 160.161 39.5791ZM247.226 65.3418C256.597 71.4136 265.376 78.4921 273.393 86.5088C277.439 90.5548 281.245 94.7966 284.804 99.209L284.475 99.5391L284.459 99.5264L246.744 137.24C240.79 128.991 233.669 121.611 225.581 115.342L262.734 78.1904L247.226 65.3418Z" fill="#6825DA"/>
<path d="M160.81 245.295C185.621 245.295 205.734 225.182 205.734 200.372C205.734 175.561 185.621 155.448 160.81 155.448C136 155.448 115.887 175.561 115.887 200.372C115.887 225.182 136 245.295 160.81 245.295Z" fill="#FF4F27"/>
<path d="M294.528 0.93612L306.289 54.5699L359.866 66.2744L300.575 125.566L267.501 118.397L244.664 141.234L244.268 140.916L244.643 141.237L173.106 212.773L148.011 187.678L217.617 118.072L217.626 118.08L242.406 93.3013L235.236 60.2274L294.528 0.93612Z" fill="#FF4F27"/>
</svg>
