<svg width="202" height="203" viewBox="0 0 202 203" fill="none" xmlns="http://www.w3.org/2000/svg">
<path d="M89.6903 22.7515C101.076 22.7563 112.238 24.926 122.626 29.0308L98.3797 53.2769C95.5141 52.856 92.6103 52.6421 89.6903 52.6421C73.8365 52.6621 58.6379 58.9689 47.4276 70.1792C36.2173 81.3895 29.9104 96.5882 29.8904 112.442C29.8905 124.269 33.3977 135.831 39.9686 145.665C46.5395 155.499 55.8785 163.164 66.8055 167.69C77.7324 172.216 89.7563 173.4 101.356 171.092C112.956 168.785 123.612 163.089 131.975 154.726C140.338 146.363 146.033 135.708 148.341 124.108C149.513 118.214 149.782 112.211 149.171 106.297L173.889 81.5786C177.482 91.3728 179.376 101.809 179.381 112.442C179.381 130.181 174.12 147.522 164.264 162.271C154.409 177.02 140.402 188.516 124.013 195.304C107.625 202.093 89.5904 203.869 72.1922 200.409C54.7941 196.948 38.8127 188.405 26.2694 175.862C13.7261 163.318 5.18415 147.337 1.72346 129.939C-1.73716 112.541 0.038578 94.5073 6.82697 78.1187C13.6154 61.7299 25.1117 47.722 39.8612 37.8667C54.6106 28.0115 71.9513 22.7515 89.6903 22.7515ZM138.41 37.1548C143.671 40.5602 148.6 44.5321 153.099 49.0317C155.366 51.2985 157.498 53.6758 159.492 56.1479L159.311 56.3296L159.304 56.3228L138.179 77.4468C134.843 72.8249 130.854 68.6901 126.323 65.1782L147.126 44.3765L138.41 37.1548Z" fill="black"/>
<path d="M89.6924 137.599C103.586 137.599 114.85 126.336 114.85 112.442C114.85 98.5482 103.586 87.2849 89.6924 87.2849C75.7984 87.2849 64.5352 98.5482 64.5352 112.442C64.5352 126.336 75.7984 137.599 89.6924 137.599Z" fill="black"/>
<path d="M164.933 1.11172L171.519 31.1458L201.522 37.701L168.319 70.904L149.799 66.8899L137.01 79.6786L136.801 79.5108L136.999 79.68L96.9381 119.741L82.8844 105.687L121.864 66.7076L121.869 66.7118L135.745 52.8362L131.73 34.3147L164.933 1.11172Z" fill="black"/>
</svg>
