<svg xmlns="http://www.w3.org/2000/svg" width="406" height="401" viewBox="0 0 406 401" fill="none"><metadata><rdf:RDF xmlns:rdf="http://www.w3.org/1999/02/22-rdf-syntax-ns#" xmlns:dc="http://purl.org/dc/elements/1.1/"><rdf:Description><dc:creator>RealFaviconGenerator</dc:creator><dc:source>https://realfavicongenerator.net</dc:source></rdf:Description></rdf:RDF></metadata><rect width="406" height="401" rx="70" fill="#6825DA"></rect><path d="M203.634 82.5894C218.622 82.5957 233.315 85.4522 246.989 90.856L215.075 122.771C211.302 122.217 207.479 121.934 203.634 121.934C182.766 121.96 162.76 130.261 148.004 145.017C133.248 159.773 124.947 179.779 124.921 200.647C124.921 216.215 129.537 231.433 138.187 244.377C146.836 257.322 159.129 267.411 173.512 273.369C187.895 279.326 203.721 280.885 218.99 277.848C234.259 274.811 248.285 267.314 259.293 256.306C270.301 245.298 277.798 231.272 280.835 216.003C282.378 208.246 282.732 200.345 281.929 192.562L314.466 160.025C319.195 172.916 321.686 186.653 321.691 200.647C321.691 223.997 314.767 246.822 301.795 266.237C288.823 285.651 270.385 300.783 248.813 309.718C227.24 318.654 203.502 320.991 180.602 316.436C157.701 311.881 136.665 300.637 120.154 284.126C103.644 267.616 92.4001 246.58 87.8448 223.679C83.2895 200.778 85.627 177.04 94.5625 155.468C103.498 133.896 118.63 115.458 138.045 102.486C157.459 89.5136 180.284 82.5894 203.634 82.5894ZM267.794 101.569C274.707 106.047 281.185 111.268 287.099 117.182C290.083 120.166 292.89 123.295 295.515 126.549L295.277 126.788L295.267 126.779L267.459 154.585C263.069 148.502 257.819 143.059 251.856 138.436L279.24 111.052L267.794 101.569Z" fill="#F8FCFE"></path><path d="M204.114 234.228C222.402 234.228 237.228 219.402 237.228 201.114C237.228 182.826 222.402 168 204.114 168C185.826 168 171 182.826 171 201.114C171 219.402 185.826 234.228 204.114 234.228Z" fill="#F8FCFE"></path><path d="M302.676 54.1047L311.345 93.6391L350.838 102.267L307.133 145.971L282.754 140.687L265.919 157.521L265.641 157.298L265.904 157.523L213.173 210.254L194.675 191.756L245.982 140.448L245.99 140.455L264.256 122.189L258.971 97.8093L302.676 54.1047Z" fill="#F8FCFE"></path></svg>